<?xml version="1.0" standalone="no"?><svg xmlns="http://www.w3.org/2000/svg" viewBox="0 0 1440 320"><path fill="#f3f4f5" fill-opacity="1" d="M0,96L24,96C48,96,96,96,144,112C192,128,240,160,288,149.3C336,139,384,85,432,74.7C480,64,528,96,576,106.7C624,117,672,107,720,112C768,117,816,139,864,165.3C912,192,960,224,1008,202.7C1056,181,1104,107,1152,117.3C1200,128,1248,224,1296,229.3C1344,235,1392,149,1416,106.7L1440,64L1440,320L1416,320C1392,320,1344,320,1296,320C1248,320,1200,320,1152,320C1104,320,1056,320,1008,320C960,320,912,320,864,320C816,320,768,320,720,320C672,320,624,320,576,320C528,320,480,320,432,320C384,320,336,320,288,320C240,320,192,320,144,320C96,320,48,320,24,320L0,320Z"></path></svg>